<svg width="24" height="24" viewBox="0 0 24 24" fill="none" xmlns="http://www.w3.org/2000/svg">
<g clip-path="url(#clip0_288_21)">
<path d="M22.1221 0H1.87793C0.84078 0 0 0.84078 0 1.87793V22.1221C0 23.1592 0.84078 24 1.87793 24H22.1221C23.1592 24 24 23.1592 24 22.1221V1.87793C24 0.84078 23.1592 0 22.1221 0Z" fill="#6366F1"/>
<path fill-rule="evenodd" clip-rule="evenodd" d="M6.60346 16.2049L8.96733 16.0569L8.45638 14.6596L6.13529 15.5149C5.8995 15.1172 5.70292 14.6935 5.55081 14.2492L7.97912 13.3545L7.45383 11.918L5.4814 14.0349C5.31362 13.486 5.21312 12.9077 5.18945 12.3097L6.9185 10.4541L6.19039 8.46301C6.47651 7.99717 6.81691 7.56829 7.20275 7.18512L7.98112 9.31364L9.54142 7.63912L8.11144 6.42647C8.517 6.14339 8.95475 5.9032 9.41807 5.71244L10.4898 6.62128L11.8109 5.20352C11.8797 5.20145 11.9488 5.20044 12.0182 5.20044C12.5456 5.20044 13.059 5.2602 13.5521 5.37325L11.5508 7.52108L15.0799 10.5138L16.3341 6.73539C16.7394 7.0659 17.1061 7.44202 17.4264 7.85588L16.6634 10.1547L18.3763 9.52352C18.5454 9.95146 18.6726 10.4006 18.7528 10.8658L16.4817 11.7026L18.6799 13.5667C18.5674 14.0579 18.402 14.5289 18.19 14.9733L15.7506 12.9047L14.8262 15.6898L17.9119 15.4964C17.5939 16.0368 17.2037 16.5295 16.7546 16.9613L14.3542 17.1117L13.8538 18.6194C13.3591 18.7571 12.8419 18.8404 12.3089 18.8627L12.8589 17.2054L10.9116 17.3274L11.4673 18.8469C10.6919 18.7851 9.95298 18.5938 9.27216 18.2947C9.46585 18.3794 9.66502 18.4558 9.86927 18.5233L9.4651 17.4181L7.93311 17.514C7.43253 17.1402 6.98491 16.6994 6.60346 16.2049ZM10.4139 15.9662L9.76038 14.1791L14.4351 12.4567L13.3309 15.7835L10.4139 15.9662ZM9.28309 12.874L13.7665 11.222L10.6024 8.53892L8.51648 10.7776L9.28309 12.874Z" fill="white"/>
</g>
<defs>
<clipPath id="clip0_288_21">
<rect width="24" height="24" fill="white"/>
</clipPath>
</defs>
</svg>
