<svg width="2178" height="364" viewBox="0 0 2178 364" fill="none" xmlns="http://www.w3.org/2000/svg">
<path fill-rule="evenodd" clip-rule="evenodd" d="M37.6489 292.995L100.587 289.052L86.9832 251.851L25.1832 274.622C18.9056 264.033 13.6712 252.753 9.62143 240.924L74.2759 217.101L60.2902 178.856L7.77337 235.218C3.30675 220.604 0.630414 205.207 0 189.285L46.0366 139.878L26.6509 86.8661C34.2683 74.4632 43.3312 63.0434 53.6049 52.8415L74.3292 109.514L115.872 64.9299L77.7981 32.6426C88.597 25.1058 100.252 18.7106 112.587 13.6319L141.123 37.8303L176.296 0.0821125C178.129 0.0274999 179.969 0 181.815 0C195.857 0 209.528 1.59066 222.657 4.60162L169.373 61.7871L263.335 141.469L296.726 40.8678C307.518 49.6681 317.282 59.682 325.809 70.7014L305.494 131.906L351.099 115.102C355.603 126.496 358.99 138.454 361.124 150.84L300.658 173.119L359.185 222.752C356.19 235.829 351.786 248.369 346.141 260.203L281.192 205.125L256.579 279.279L338.737 274.132C330.269 288.517 319.879 301.636 307.921 313.135L244.013 317.139L230.689 357.281C217.519 360.945 203.747 363.164 189.555 363.758L204.2 319.633L152.354 322.881L167.148 363.337C146.496 361.69 126.816 356.595 108.684 348.627C113.847 350.885 119.156 352.921 124.601 354.72L113.84 325.294L73.0508 327.849C59.7227 317.897 47.8042 306.161 37.6489 292.995ZM139.101 286.639L121.702 239.058L246.166 193.198L216.767 281.773L139.101 286.639ZM108.994 204.309L228.364 160.325L144.122 88.8867L88.5829 148.492L108.994 204.309Z" fill="white"/>
<path d="M502.36 116.28C506.667 110.453 511.353 105.893 516.42 102.6C521.487 99.3067 526.427 96.7733 531.24 95C536.307 93.2267 540.993 92.2133 545.3 91.96C549.86 91.4533 554.04 91.2 557.84 91.2C566.96 91.2 576.08 93.1 585.2 96.9C594.573 100.447 602.427 107.54 608.76 118.18C613.067 112.607 617.627 108.047 622.44 104.5C627.253 100.953 632.32 98.1667 637.64 96.14C642.96 94.1133 648.153 92.8467 653.22 92.34C658.54 91.58 663.733 91.2 668.8 91.2C680.2 91.2 690.08 93.1 698.44 96.9C707.053 100.7 714.02 106.147 719.34 113.24C724.66 120.08 728.587 128.44 731.12 138.32C733.653 147.947 734.92 158.84 734.92 171V295.26H667.66V183.54C667.66 180.5 667.407 177.207 666.9 173.66C666.647 170.113 665.76 166.82 664.24 163.78C662.973 160.487 660.82 157.827 657.78 155.8C654.74 153.52 650.56 152.38 645.24 152.38C639.413 152.887 634.727 154.407 631.18 156.94C627.887 159.473 625.353 162.513 623.58 166.06C622.06 169.607 621.047 173.28 620.54 177.08C620.287 180.88 620.16 184.3 620.16 187.34V295.26H552.9V183.16C552.9 180.627 552.647 177.587 552.14 174.04C551.887 170.493 551 167.073 549.48 163.78C547.96 160.487 545.68 157.827 542.64 155.8C539.853 153.52 535.927 152.38 530.86 152.38C524.527 152.38 519.46 153.647 515.66 156.18C512.113 158.713 509.453 162.007 507.68 166.06C506.16 169.86 505.147 173.913 504.64 178.22C504.387 182.273 504.26 185.947 504.26 189.24V295.26H437V95H496.28L502.36 116.28Z" fill="white"/>
<path d="M849.309 242.06C857.162 242.313 863.749 240.92 869.069 237.88C874.389 234.587 877.682 231.167 878.949 227.62H944.689C941.902 240.287 937.469 251.053 931.389 259.92C925.309 268.533 917.962 275.753 909.349 281.58C900.736 287.407 891.236 291.713 880.849 294.5C870.462 297.033 859.696 298.3 848.549 298.3C833.096 298.3 819.036 296.02 806.369 291.46C793.956 286.647 783.316 279.807 774.449 270.94C765.582 261.82 758.616 250.927 753.549 238.26C748.736 225.34 746.329 210.647 746.329 194.18C746.329 178.473 748.989 164.16 754.309 151.24C759.629 138.067 767.102 126.793 776.729 117.42C785.596 109.06 795.856 102.6 807.509 98.04C819.416 93.2267 832.969 90.82 848.169 90.82C863.876 90.82 877.176 92.9733 888.069 97.28C899.216 101.587 909.349 108.173 918.469 117.04C927.082 125.907 933.542 136.547 937.849 148.96C942.409 161.373 944.689 174.673 944.689 188.86C944.689 193.673 944.436 198.107 943.929 202.16C943.676 205.96 943.042 210.013 942.029 214.32H812.829C813.589 221.667 816.756 228.127 822.329 233.7C828.156 239.02 837.149 241.807 849.309 242.06ZM848.169 144.02C842.342 144.02 837.149 144.907 832.589 146.68C828.282 148.2 824.736 150.353 821.949 153.14C819.416 155.673 817.389 158.587 815.869 161.88C814.602 164.92 813.969 167.833 813.969 170.62H881.609C881.609 167.833 880.976 164.92 879.709 161.88C878.696 158.587 876.796 155.673 874.009 153.14C871.222 150.353 867.676 148.2 863.369 146.68C859.316 144.907 854.249 144.02 848.169 144.02Z" fill="white"/>
<path d="M1062.55 234.46C1069.9 234.46 1075.73 233.573 1080.03 231.8C1084.34 229.773 1087.76 227.747 1090.29 225.72L1108.53 278.54C1103.97 282.34 1098.91 285.507 1093.33 288.04C1088.01 290.32 1082.57 292.22 1076.99 293.74C1071.42 295.26 1065.97 296.273 1060.65 296.78C1055.59 297.54 1051.15 297.92 1047.35 297.92C1022.02 297.92 1003.02 291.207 990.354 277.78C977.688 264.353 971.354 246.367 971.354 223.82V155.04H943.234V95H971.354V44.84H1038.61V95H1098.65V155.04H1038.61V208.24C1038.61 216.6 1040.64 223.06 1044.69 227.62C1048.75 232.18 1054.7 234.46 1062.55 234.46Z" fill="white"/>
<path d="M1231.07 269.04C1226 276.64 1220.43 282.467 1214.35 286.52C1208.52 290.32 1202.57 293.107 1196.49 294.88C1190.66 296.653 1185.21 297.667 1180.15 297.92C1175.08 298.173 1171.28 298.3 1168.75 298.3C1160.39 298.3 1152.15 297.033 1144.05 294.5C1136.19 291.967 1129.23 288.04 1123.15 282.72C1117.07 277.4 1112.13 270.813 1108.33 262.96C1104.53 254.853 1102.63 245.1 1102.63 233.7C1102.63 222.047 1105.54 211.913 1111.37 203.3C1117.45 194.687 1124.67 188.227 1133.03 183.92C1139.11 180.88 1145.57 178.6 1152.41 177.08C1159.5 175.307 1166.59 174.167 1173.69 173.66C1181.03 173.153 1188.63 172.9 1196.49 172.9H1229.17C1228.91 165.807 1226.25 159.853 1221.19 155.04C1216.37 149.973 1209.53 147.44 1200.67 147.44C1194.08 147.44 1188 148.833 1182.43 151.62C1177.11 154.407 1174.07 157.953 1173.31 162.26H1106.43C1107.95 149.847 1111.62 139.207 1117.45 130.34C1123.27 121.22 1130.49 113.873 1139.11 108.3C1147.72 102.473 1157.22 98.1667 1167.61 95.38C1177.99 92.5933 1188.76 91.2 1199.91 91.2C1213.33 91.2 1224.99 92.5933 1234.87 95.38C1245 98.1667 1253.74 102.347 1261.09 107.92C1282.37 123.373 1293.01 149.973 1293.01 187.72V295.26H1231.07V269.04ZM1192.31 214.32C1185.97 214.32 1180.53 215.587 1175.97 218.12C1171.41 220.653 1169.13 224.833 1169.13 230.66C1169.13 235.98 1171.15 240.033 1175.21 242.82C1179.51 245.607 1184.71 247 1190.79 247C1196.11 247 1201.05 246.113 1205.61 244.34C1210.42 242.567 1214.47 240.16 1217.77 237.12C1221.31 233.827 1224.1 230.28 1226.13 226.48C1228.41 222.68 1229.67 218.627 1229.93 214.32H1192.31Z" fill="white"/>
<path d="M1379.33 295.26H1313.21V26.22H1380.47V114.76C1388.83 106.4 1398.21 100.32 1408.59 96.52C1419.23 92.72 1430.51 90.82 1442.41 90.82C1456.85 90.82 1469.27 93.48 1479.65 98.8C1490.29 103.867 1499.16 110.96 1506.25 120.08C1513.35 129.2 1518.54 139.967 1521.83 152.38C1525.38 164.793 1527.15 178.347 1527.15 193.04C1527.15 208.493 1525.38 222.68 1521.83 235.6C1518.54 248.52 1513.35 259.667 1506.25 269.04C1499.16 278.16 1490.04 285.38 1478.89 290.7C1468 295.767 1455.08 298.3 1440.13 298.3C1436.33 298.3 1432.03 298.173 1427.21 297.92C1422.4 297.667 1417.33 296.78 1412.01 295.26C1406.69 293.74 1401.25 291.46 1395.67 288.42C1390.1 285.127 1384.65 280.44 1379.33 274.36V295.26ZM1421.51 151.62C1414.93 151.62 1408.97 152.76 1403.65 155.04C1398.33 157.32 1393.9 160.487 1390.35 164.54C1387.06 168.34 1384.53 172.773 1382.75 177.84C1381.23 182.907 1380.47 188.227 1380.47 193.8C1380.47 199.88 1381.23 205.58 1382.75 210.9C1384.27 216.22 1386.81 220.907 1390.35 224.96C1393.9 228.76 1398.33 231.927 1403.65 234.46C1408.97 236.993 1415.31 238.26 1422.65 238.26C1430.25 238.26 1436.46 236.867 1441.27 234.08C1446.34 231.04 1450.27 227.367 1453.05 223.06C1456.09 218.5 1458.12 213.687 1459.13 208.62C1460.4 203.3 1461.03 197.98 1461.03 192.66C1460.78 187.847 1459.89 183.033 1458.37 178.22C1457.11 173.153 1454.95 168.72 1451.91 164.92C1448.87 160.867 1444.82 157.7 1439.75 155.42C1434.94 152.887 1428.86 151.62 1421.51 151.62Z" fill="white"/>
<path d="M1603.42 114C1607.22 108.427 1611.4 104.12 1615.96 101.08C1620.52 98.04 1625.08 95.76 1629.64 94.24C1634.2 92.72 1638.76 91.8333 1643.32 91.58C1648.14 91.0733 1652.82 90.82 1657.38 90.82C1660.68 90.82 1663.97 90.9467 1667.26 91.2C1670.56 91.2 1672.71 91.3267 1673.72 91.58V156.56H1660.8C1653.71 156.56 1646.87 157.193 1640.28 158.46C1633.95 159.727 1628.25 162.133 1623.18 165.68C1618.37 168.973 1614.44 173.66 1611.4 179.74C1608.62 185.82 1607.22 193.927 1607.22 204.06V295.26H1539.96V95H1598.86L1603.42 114Z" fill="white"/>
<path d="M1800.74 269.04C1795.67 276.64 1790.1 282.467 1784.02 286.52C1778.19 290.32 1772.24 293.107 1766.16 294.88C1760.33 296.653 1754.89 297.667 1749.82 297.92C1744.75 298.173 1740.95 298.3 1738.42 298.3C1730.06 298.3 1721.83 297.033 1713.72 294.5C1705.87 291.967 1698.9 288.04 1692.82 282.72C1686.74 277.4 1681.8 270.813 1678 262.96C1674.2 254.853 1672.3 245.1 1672.3 233.7C1672.3 222.047 1675.21 211.913 1681.04 203.3C1687.12 194.687 1694.34 188.227 1702.7 183.92C1708.78 180.88 1715.24 178.6 1722.08 177.08C1729.17 175.307 1736.27 174.167 1743.36 173.66C1750.71 173.153 1758.31 172.9 1766.16 172.9H1798.84C1798.59 165.807 1795.93 159.853 1790.86 155.04C1786.05 149.973 1779.21 147.44 1770.34 147.44C1763.75 147.44 1757.67 148.833 1752.1 151.62C1746.78 154.407 1743.74 157.953 1742.98 162.26H1676.1C1677.62 149.847 1681.29 139.207 1687.12 130.34C1692.95 121.22 1700.17 113.873 1708.78 108.3C1717.39 102.473 1726.89 98.1667 1737.28 95.38C1747.67 92.5933 1758.43 91.2 1769.58 91.2C1783.01 91.2 1794.66 92.5933 1804.54 95.38C1814.67 98.1667 1823.41 102.347 1830.76 107.92C1852.04 123.373 1862.68 149.973 1862.68 187.72V295.26H1800.74V269.04ZM1761.98 214.32C1755.65 214.32 1750.2 215.587 1745.64 218.12C1741.08 220.653 1738.8 224.833 1738.8 230.66C1738.8 235.98 1740.83 240.033 1744.88 242.82C1749.19 245.607 1754.38 247 1760.46 247C1765.78 247 1770.72 246.113 1775.28 244.34C1780.09 242.567 1784.15 240.16 1787.44 237.12C1790.99 233.827 1793.77 230.28 1795.8 226.48C1798.08 222.68 1799.35 218.627 1799.6 214.32H1761.98Z" fill="white"/>
<path d="M1920.51 0C1926.08 0 1931.27 0.886663 1936.09 2.65999C1940.9 4.43333 1945.08 7.09333 1948.63 10.64C1952.43 14.1867 1955.47 18.3667 1957.75 23.18C1960.03 27.9933 1961.17 33.5667 1961.17 39.9C1961.17 53.0733 1957.11 63.08 1949.01 69.92C1940.9 76.5067 1931.4 79.8 1920.51 79.8C1915.19 79.8 1910.12 79.04 1905.31 77.52C1900.49 75.7467 1896.19 73.2133 1892.39 69.92C1888.59 66.6267 1885.55 62.5733 1883.27 57.76C1880.99 52.6933 1879.85 46.74 1879.85 39.9C1879.85 33.5667 1880.99 27.9933 1883.27 23.18C1885.8 18.3667 1888.97 14.1867 1892.77 10.64C1896.57 7.09333 1900.87 4.43333 1905.69 2.65999C1910.5 0.886663 1915.44 0 1920.51 0ZM1954.33 295.26H1887.45V95H1954.33V295.26Z" fill="white"/>
<path d="M2044.38 113.24C2048.94 108.427 2053.88 104.5 2059.2 101.46C2064.52 98.42 2069.72 96.14 2074.78 94.62C2080.1 93.1 2085.17 92.0867 2089.98 91.58C2094.8 91.0733 2098.85 90.82 2102.14 90.82C2114.3 90.82 2124.94 92.8467 2134.06 96.9C2143.18 100.7 2151.04 106.273 2157.62 113.62C2164.97 122.233 2170.04 132.747 2172.82 145.16C2175.86 157.32 2177.38 170.493 2177.38 184.68V295.26H2110.12V190.38C2110.12 186.327 2109.62 182.147 2108.6 177.84C2107.84 173.28 2106.32 169.1 2104.04 165.3C2101.76 161.5 2098.6 158.46 2094.54 156.18C2090.49 153.647 2085.3 152.38 2078.96 152.38C2073.39 152.38 2068.2 153.773 2063.38 156.56C2058.57 159.093 2054.9 162.387 2052.36 166.44C2050.08 170.24 2048.44 174.42 2047.42 178.98C2046.41 183.54 2045.9 187.847 2045.9 191.9V295.26H1978.64V94.62H2040.58L2044.38 113.24Z" fill="white"/>
</svg>
