<svg width="2176" height="364" viewBox="0 0 2176 364" fill="none" xmlns="http://www.w3.org/2000/svg">
<path fill-rule="evenodd" clip-rule="evenodd" d="M37.6489 292.995L100.587 289.052L86.9832 251.851L25.1832 274.622C18.9056 264.033 13.6712 252.753 9.62143 240.924L74.2759 217.101L60.2902 178.856L7.77337 235.218C3.30675 220.604 0.630414 205.207 0 189.285L46.0366 139.878L26.6509 86.8661C34.2683 74.4632 43.3312 63.0434 53.6049 52.8415L74.3292 109.514L115.872 64.9299L77.7981 32.6426C88.597 25.1058 100.252 18.7106 112.587 13.6319L141.123 37.8303L176.296 0.0821125C178.129 0.0274999 179.969 0 181.815 0C195.857 0 209.528 1.59066 222.657 4.60162L169.373 61.7871L263.335 141.469L296.726 40.8678C307.518 49.6681 317.282 59.682 325.809 70.7014L305.494 131.906L351.099 115.102C355.603 126.496 358.99 138.454 361.124 150.84L300.658 173.119L359.185 222.752C356.19 235.829 351.786 248.369 346.141 260.203L281.192 205.125L256.579 279.279L338.737 274.132C330.269 288.517 319.879 301.636 307.921 313.135L244.013 317.139L230.689 357.281C217.519 360.945 203.747 363.164 189.555 363.758L204.2 319.633L152.354 322.881L167.148 363.337C146.496 361.69 126.816 356.595 108.684 348.627C113.847 350.885 119.156 352.921 124.601 354.72L113.84 325.294L73.0508 327.849C59.7227 317.897 47.8042 306.161 37.6489 292.995ZM139.101 286.639L121.702 239.058L246.166 193.198L216.767 281.773L139.101 286.639ZM108.994 204.309L228.364 160.325L144.122 88.8867L88.5829 148.492L108.994 204.309Z" fill="#6366F1"/>
<path d="M500.36 116.28C504.667 110.453 509.353 105.893 514.42 102.6C519.487 99.3067 524.427 96.7733 529.24 95C534.307 93.2267 538.993 92.2133 543.3 91.96C547.86 91.4533 552.04 91.2 555.84 91.2C564.96 91.2 574.08 93.1 583.2 96.9C592.573 100.447 600.427 107.54 606.76 118.18C611.067 112.607 615.627 108.047 620.44 104.5C625.253 100.953 630.32 98.1667 635.64 96.14C640.96 94.1133 646.153 92.8467 651.22 92.34C656.54 91.58 661.733 91.2 666.8 91.2C678.2 91.2 688.08 93.1 696.44 96.9C705.053 100.7 712.02 106.147 717.34 113.24C722.66 120.08 726.587 128.44 729.12 138.32C731.653 147.947 732.92 158.84 732.92 171V295.26H665.66V183.54C665.66 180.5 665.407 177.207 664.9 173.66C664.647 170.113 663.76 166.82 662.24 163.78C660.973 160.487 658.82 157.827 655.78 155.8C652.74 153.52 648.56 152.38 643.24 152.38C637.413 152.887 632.727 154.407 629.18 156.94C625.887 159.473 623.353 162.513 621.58 166.06C620.06 169.607 619.047 173.28 618.54 177.08C618.287 180.88 618.16 184.3 618.16 187.34V295.26H550.9V183.16C550.9 180.627 550.647 177.587 550.14 174.04C549.887 170.493 549 167.073 547.48 163.78C545.96 160.487 543.68 157.827 540.64 155.8C537.853 153.52 533.927 152.38 528.86 152.38C522.527 152.38 517.46 153.647 513.66 156.18C510.113 158.713 507.453 162.007 505.68 166.06C504.16 169.86 503.147 173.913 502.64 178.22C502.387 182.273 502.26 185.947 502.26 189.24V295.26H435V95H494.28L500.36 116.28Z" fill="#6366F1"/>
<path d="M847.309 242.06C855.162 242.313 861.749 240.92 867.069 237.88C872.389 234.587 875.682 231.167 876.949 227.62H942.689C939.902 240.287 935.469 251.053 929.389 259.92C923.309 268.533 915.962 275.753 907.349 281.58C898.736 287.407 889.236 291.713 878.849 294.5C868.462 297.033 857.696 298.3 846.549 298.3C831.096 298.3 817.036 296.02 804.369 291.46C791.956 286.647 781.316 279.807 772.449 270.94C763.582 261.82 756.616 250.927 751.549 238.26C746.736 225.34 744.329 210.647 744.329 194.18C744.329 178.473 746.989 164.16 752.309 151.24C757.629 138.067 765.102 126.793 774.729 117.42C783.596 109.06 793.856 102.6 805.509 98.04C817.416 93.2267 830.969 90.82 846.169 90.82C861.876 90.82 875.176 92.9733 886.069 97.28C897.216 101.587 907.349 108.173 916.469 117.04C925.082 125.907 931.542 136.547 935.849 148.96C940.409 161.373 942.689 174.673 942.689 188.86C942.689 193.673 942.436 198.107 941.929 202.16C941.676 205.96 941.042 210.013 940.029 214.32H810.829C811.589 221.667 814.756 228.127 820.329 233.7C826.156 239.02 835.149 241.807 847.309 242.06ZM846.169 144.02C840.342 144.02 835.149 144.907 830.589 146.68C826.282 148.2 822.736 150.353 819.949 153.14C817.416 155.673 815.389 158.587 813.869 161.88C812.602 164.92 811.969 167.833 811.969 170.62H879.609C879.609 167.833 878.976 164.92 877.709 161.88C876.696 158.587 874.796 155.673 872.009 153.14C869.222 150.353 865.676 148.2 861.369 146.68C857.316 144.907 852.249 144.02 846.169 144.02Z" fill="#6366F1"/>
<path d="M1060.55 234.46C1067.9 234.46 1073.73 233.573 1078.03 231.8C1082.34 229.773 1085.76 227.747 1088.29 225.72L1106.53 278.54C1101.97 282.34 1096.91 285.507 1091.33 288.04C1086.01 290.32 1080.57 292.22 1074.99 293.74C1069.42 295.26 1063.97 296.273 1058.65 296.78C1053.59 297.54 1049.15 297.92 1045.35 297.92C1020.02 297.92 1001.02 291.207 988.354 277.78C975.688 264.353 969.354 246.367 969.354 223.82V155.04H941.234V95H969.354V44.84H1036.61V95H1096.65V155.04H1036.61V208.24C1036.61 216.6 1038.64 223.06 1042.69 227.62C1046.75 232.18 1052.7 234.46 1060.55 234.46Z" fill="#6366F1"/>
<path d="M1229.07 269.04C1224 276.64 1218.43 282.467 1212.35 286.52C1206.52 290.32 1200.57 293.107 1194.49 294.88C1188.66 296.653 1183.21 297.667 1178.15 297.92C1173.08 298.173 1169.28 298.3 1166.75 298.3C1158.39 298.3 1150.15 297.033 1142.05 294.5C1134.19 291.967 1127.23 288.04 1121.15 282.72C1115.07 277.4 1110.13 270.813 1106.33 262.96C1102.53 254.853 1100.63 245.1 1100.63 233.7C1100.63 222.047 1103.54 211.913 1109.37 203.3C1115.45 194.687 1122.67 188.227 1131.03 183.92C1137.11 180.88 1143.57 178.6 1150.41 177.08C1157.5 175.307 1164.59 174.167 1171.69 173.66C1179.03 173.153 1186.63 172.9 1194.49 172.9H1227.17C1226.91 165.807 1224.25 159.853 1219.19 155.04C1214.37 149.973 1207.53 147.44 1198.67 147.44C1192.08 147.44 1186 148.833 1180.43 151.62C1175.11 154.407 1172.07 157.953 1171.31 162.26H1104.43C1105.95 149.847 1109.62 139.207 1115.45 130.34C1121.27 121.22 1128.49 113.873 1137.11 108.3C1145.72 102.473 1155.22 98.1667 1165.61 95.38C1175.99 92.5933 1186.76 91.2 1197.91 91.2C1211.33 91.2 1222.99 92.5933 1232.87 95.38C1243 98.1667 1251.74 102.347 1259.09 107.92C1280.37 123.373 1291.01 149.973 1291.01 187.72V295.26H1229.07V269.04ZM1190.31 214.32C1183.97 214.32 1178.53 215.587 1173.97 218.12C1169.41 220.653 1167.13 224.833 1167.13 230.66C1167.13 235.98 1169.15 240.033 1173.21 242.82C1177.51 245.607 1182.71 247 1188.79 247C1194.11 247 1199.05 246.113 1203.61 244.34C1208.42 242.567 1212.47 240.16 1215.77 237.12C1219.31 233.827 1222.1 230.28 1224.13 226.48C1226.41 222.68 1227.67 218.627 1227.93 214.32H1190.31Z" fill="#6366F1"/>
<path d="M1377.33 295.26H1311.21V26.22H1378.47V114.76C1386.83 106.4 1396.21 100.32 1406.59 96.52C1417.23 92.72 1428.51 90.82 1440.41 90.82C1454.85 90.82 1467.27 93.48 1477.65 98.8C1488.29 103.867 1497.16 110.96 1504.25 120.08C1511.35 129.2 1516.54 139.967 1519.83 152.38C1523.38 164.793 1525.15 178.347 1525.15 193.04C1525.15 208.493 1523.38 222.68 1519.83 235.6C1516.54 248.52 1511.35 259.667 1504.25 269.04C1497.16 278.16 1488.04 285.38 1476.89 290.7C1466 295.767 1453.08 298.3 1438.13 298.3C1434.33 298.3 1430.03 298.173 1425.21 297.92C1420.4 297.667 1415.33 296.78 1410.01 295.26C1404.69 293.74 1399.25 291.46 1393.67 288.42C1388.1 285.127 1382.65 280.44 1377.33 274.36V295.26ZM1419.51 151.62C1412.93 151.62 1406.97 152.76 1401.65 155.04C1396.33 157.32 1391.9 160.487 1388.35 164.54C1385.06 168.34 1382.53 172.773 1380.75 177.84C1379.23 182.907 1378.47 188.227 1378.47 193.8C1378.47 199.88 1379.23 205.58 1380.75 210.9C1382.27 216.22 1384.81 220.907 1388.35 224.96C1391.9 228.76 1396.33 231.927 1401.65 234.46C1406.97 236.993 1413.31 238.26 1420.65 238.26C1428.25 238.26 1434.46 236.867 1439.27 234.08C1444.34 231.04 1448.27 227.367 1451.05 223.06C1454.09 218.5 1456.12 213.687 1457.13 208.62C1458.4 203.3 1459.03 197.98 1459.03 192.66C1458.78 187.847 1457.89 183.033 1456.37 178.22C1455.11 173.153 1452.95 168.72 1449.91 164.92C1446.87 160.867 1442.82 157.7 1437.75 155.42C1432.94 152.887 1426.86 151.62 1419.51 151.62Z" fill="#6366F1"/>
<path d="M1601.42 114C1605.22 108.427 1609.4 104.12 1613.96 101.08C1618.52 98.04 1623.08 95.76 1627.64 94.24C1632.2 92.72 1636.76 91.8333 1641.32 91.58C1646.14 91.0733 1650.82 90.82 1655.38 90.82C1658.68 90.82 1661.97 90.9467 1665.26 91.2C1668.56 91.2 1670.71 91.3267 1671.72 91.58V156.56H1658.8C1651.71 156.56 1644.87 157.193 1638.28 158.46C1631.95 159.727 1626.25 162.133 1621.18 165.68C1616.37 168.973 1612.44 173.66 1609.4 179.74C1606.62 185.82 1605.22 193.927 1605.22 204.06V295.26H1537.96V95H1596.86L1601.42 114Z" fill="#6366F1"/>
<path d="M1798.74 269.04C1793.67 276.64 1788.1 282.467 1782.02 286.52C1776.19 290.32 1770.24 293.107 1764.16 294.88C1758.33 296.653 1752.89 297.667 1747.82 297.92C1742.75 298.173 1738.95 298.3 1736.42 298.3C1728.06 298.3 1719.83 297.033 1711.72 294.5C1703.87 291.967 1696.9 288.04 1690.82 282.72C1684.74 277.4 1679.8 270.813 1676 262.96C1672.2 254.853 1670.3 245.1 1670.3 233.7C1670.3 222.047 1673.21 211.913 1679.04 203.3C1685.12 194.687 1692.34 188.227 1700.7 183.92C1706.78 180.88 1713.24 178.6 1720.08 177.08C1727.17 175.307 1734.27 174.167 1741.36 173.66C1748.71 173.153 1756.31 172.9 1764.16 172.9H1796.84C1796.59 165.807 1793.93 159.853 1788.86 155.04C1784.05 149.973 1777.21 147.44 1768.34 147.44C1761.75 147.44 1755.67 148.833 1750.1 151.62C1744.78 154.407 1741.74 157.953 1740.98 162.26H1674.1C1675.62 149.847 1679.29 139.207 1685.12 130.34C1690.95 121.22 1698.17 113.873 1706.78 108.3C1715.39 102.473 1724.89 98.1667 1735.28 95.38C1745.67 92.5933 1756.43 91.2 1767.58 91.2C1781.01 91.2 1792.66 92.5933 1802.54 95.38C1812.67 98.1667 1821.41 102.347 1828.76 107.92C1850.04 123.373 1860.68 149.973 1860.68 187.72V295.26H1798.74V269.04ZM1759.98 214.32C1753.65 214.32 1748.2 215.587 1743.64 218.12C1739.08 220.653 1736.8 224.833 1736.8 230.66C1736.8 235.98 1738.83 240.033 1742.88 242.82C1747.19 245.607 1752.38 247 1758.46 247C1763.78 247 1768.72 246.113 1773.28 244.34C1778.09 242.567 1782.15 240.16 1785.44 237.12C1788.99 233.827 1791.77 230.28 1793.8 226.48C1796.08 222.68 1797.35 218.627 1797.6 214.32H1759.98Z" fill="#6366F1"/>
<path d="M1918.51 0C1924.08 0 1929.27 0.886663 1934.09 2.65999C1938.9 4.43333 1943.08 7.09333 1946.63 10.64C1950.43 14.1867 1953.47 18.3667 1955.75 23.18C1958.03 27.9933 1959.17 33.5667 1959.17 39.9C1959.17 53.0733 1955.11 63.08 1947.01 69.92C1938.9 76.5067 1929.4 79.8 1918.51 79.8C1913.19 79.8 1908.12 79.04 1903.31 77.52C1898.49 75.7467 1894.19 73.2133 1890.39 69.92C1886.59 66.6267 1883.55 62.5733 1881.27 57.76C1878.99 52.6933 1877.85 46.74 1877.85 39.9C1877.85 33.5667 1878.99 27.9933 1881.27 23.18C1883.8 18.3667 1886.97 14.1867 1890.77 10.64C1894.57 7.09333 1898.87 4.43333 1903.69 2.65999C1908.5 0.886663 1913.44 0 1918.51 0ZM1952.33 295.26H1885.45V95H1952.33V295.26Z" fill="#6366F1"/>
<path d="M2042.38 113.24C2046.94 108.427 2051.88 104.5 2057.2 101.46C2062.52 98.42 2067.72 96.14 2072.78 94.62C2078.1 93.1 2083.17 92.0867 2087.98 91.58C2092.8 91.0733 2096.85 90.82 2100.14 90.82C2112.3 90.82 2122.94 92.8467 2132.06 96.9C2141.18 100.7 2149.04 106.273 2155.62 113.62C2162.97 122.233 2168.04 132.747 2170.82 145.16C2173.86 157.32 2175.38 170.493 2175.38 184.68V295.26H2108.12V190.38C2108.12 186.327 2107.62 182.147 2106.6 177.84C2105.84 173.28 2104.32 169.1 2102.04 165.3C2099.76 161.5 2096.6 158.46 2092.54 156.18C2088.49 153.647 2083.3 152.38 2076.96 152.38C2071.39 152.38 2066.2 153.773 2061.38 156.56C2056.57 159.093 2052.9 162.387 2050.36 166.44C2048.08 170.24 2046.44 174.42 2045.42 178.98C2044.41 183.54 2043.9 187.847 2043.9 191.9V295.26H1976.64V94.62H2038.58L2042.38 113.24Z" fill="#6366F1"/>
</svg>
