<svg width="700" height="320" viewBox="0 0 700 320" fill="none" xmlns="http://www.w3.org/2000/svg">
<g clip-path="url(#clip0_289_195)">
<rect width="700" height="320" rx="50" fill="url(#paint0_linear_289_195)"/>
<path opacity="0.05" fill-rule="evenodd" clip-rule="evenodd" d="M35.8228 404.357L174.279 395.672L144.352 313.733L8.39985 363.889C-5.41007 340.565 -16.9251 315.719 -25.8341 289.665L116.398 237.192L85.6308 152.952L-29.8996 277.096C-39.7256 244.907 -45.6132 210.994 -47 175.923L54.2747 67.0985L11.6286 -49.6668C28.3859 -76.9857 48.3232 -102.139 70.924 -124.61L116.515 0.21801L207.904 -97.9839L124.146 -169.101C147.902 -185.701 173.542 -199.788 200.677 -210.974L263.453 -157.674L340.829 -240.819C344.861 -240.939 348.909 -241 352.97 -241C383.861 -241 413.935 -237.496 442.817 -230.864L325.599 -104.906L532.304 70.6028L605.76 -150.984C629.501 -131.6 650.98 -109.543 669.739 -85.2715L625.048 49.5392L725.373 12.5263C735.282 37.6229 742.732 63.9619 747.427 91.2436L614.409 140.316L743.162 249.639C736.573 278.442 726.885 306.063 714.466 332.129L571.587 210.813L517.441 374.146L698.178 362.809C679.55 394.494 656.693 423.39 630.387 448.718L489.798 457.538L460.487 545.955C431.514 554.026 401.218 558.913 369.997 560.222L402.214 463.031L288.16 470.185L320.704 559.294C275.273 555.667 231.979 544.444 192.091 526.894C203.449 531.867 215.128 536.352 227.106 540.314L203.434 475.5L113.703 481.128C84.3824 459.207 58.1632 433.357 35.8228 404.357ZM259.005 390.358L220.729 285.555L494.534 184.542L429.86 379.64L259.005 390.358ZM192.773 209.016L455.372 112.135L270.05 -45.2161L147.871 86.0719L192.773 209.016Z" fill="#6366F1"/>
<g clip-path="url(#clip1_289_195)">
<path fill-rule="evenodd" clip-rule="evenodd" d="M205.186 176.028L213.855 175.476L211.981 170.267L203.469 173.455C202.604 171.973 201.883 170.393 201.325 168.737L210.231 165.401L208.304 160.045L201.071 167.938C200.455 165.891 200.087 163.735 200 161.506L206.341 154.587L203.671 147.164C204.72 145.427 205.968 143.828 207.384 142.399L210.238 150.335L215.96 144.092L210.716 139.571C212.203 138.516 213.809 137.62 215.508 136.909L219.438 140.297L224.283 135.011C224.536 135.004 224.789 135 225.043 135C226.978 135 228.861 135.223 230.669 135.644L223.33 143.652L236.272 154.81L240.871 140.723C242.358 141.955 243.703 143.357 244.877 144.9L242.079 153.471L248.361 151.118C248.981 152.713 249.448 154.388 249.742 156.122L241.413 159.242L249.475 166.192C249.062 168.023 248.455 169.779 247.678 171.436L238.732 163.724L235.341 174.107L246.658 173.387C245.492 175.401 244.06 177.238 242.413 178.848L233.611 179.409L231.775 185.03C229.961 185.543 228.064 185.854 226.11 185.937L228.127 179.758L220.985 180.213L223.023 185.878C220.179 185.647 217.468 184.934 214.97 183.818C215.681 184.134 216.413 184.419 217.163 184.671L215.68 180.551L210.062 180.909C208.226 179.515 206.585 177.872 205.186 176.028ZM219.16 175.138L216.763 168.475L233.907 162.053L229.858 174.457L219.16 175.138ZM215.013 163.609L231.455 157.45L219.852 147.447L212.202 155.793L215.013 163.609Z" fill="#6366F1"/>
<path d="M268.837 151.179C269.43 150.363 270.075 149.725 270.773 149.264C271.471 148.802 272.152 148.448 272.815 148.199C273.513 147.951 274.158 147.809 274.751 147.774C275.379 147.703 275.955 147.667 276.479 147.667C277.735 147.667 278.991 147.933 280.247 148.465C281.538 148.962 282.62 149.955 283.492 151.445C284.086 150.665 284.714 150.026 285.377 149.53C286.04 149.033 286.738 148.643 287.47 148.359C288.203 148.075 288.918 147.898 289.616 147.827C290.349 147.72 291.064 147.667 291.762 147.667C293.333 147.667 294.693 147.933 295.845 148.465C297.031 148.998 297.991 149.76 298.724 150.753C299.457 151.711 299.997 152.882 300.346 154.265C300.695 155.614 300.87 157.139 300.87 158.842V176.242H291.605V160.598C291.605 160.172 291.57 159.711 291.501 159.214C291.466 158.717 291.344 158.256 291.134 157.831C290.96 157.369 290.663 156.997 290.244 156.713C289.826 156.394 289.25 156.234 288.517 156.234C287.715 156.305 287.069 156.518 286.581 156.873C286.127 157.227 285.778 157.653 285.534 158.15C285.324 158.647 285.185 159.161 285.115 159.693C285.08 160.225 285.063 160.704 285.063 161.13V176.242H275.798V160.544C275.798 160.19 275.763 159.764 275.693 159.267C275.659 158.771 275.536 158.292 275.327 157.831C275.118 157.369 274.804 156.997 274.385 156.713C274.001 156.394 273.46 156.234 272.762 156.234C271.89 156.234 271.192 156.412 270.669 156.766C270.18 157.121 269.814 157.582 269.57 158.15C269.36 158.682 269.221 159.25 269.151 159.853C269.116 160.42 269.098 160.935 269.098 161.396V176.242H259.834V148.199H267.999L268.837 151.179Z" fill="#6366F1"/>
<path d="M316.626 168.792C317.708 168.828 318.615 168.632 319.348 168.207C320.081 167.746 320.534 167.267 320.709 166.77H329.764C329.38 168.544 328.769 170.051 327.932 171.293C327.094 172.499 326.082 173.51 324.896 174.326C323.71 175.142 322.401 175.745 320.97 176.135C319.54 176.49 318.057 176.667 316.521 176.667C314.393 176.667 312.456 176.348 310.711 175.71C309.002 175.036 307.536 174.078 306.315 172.836C305.093 171.559 304.134 170.034 303.436 168.26C302.773 166.451 302.441 164.393 302.441 162.088C302.441 159.888 302.808 157.884 303.541 156.075C304.273 154.23 305.303 152.651 306.629 151.339C307.85 150.168 309.263 149.264 310.868 148.625C312.508 147.951 314.375 147.614 316.469 147.614C318.632 147.614 320.464 147.916 321.965 148.519C323.5 149.122 324.896 150.044 326.152 151.286C327.339 152.527 328.228 154.017 328.822 155.755C329.45 157.494 329.764 159.356 329.764 161.343C329.764 162.017 329.729 162.637 329.659 163.205C329.624 163.737 329.537 164.305 329.397 164.908H311.601C311.706 165.937 312.142 166.841 312.91 167.621C313.712 168.366 314.951 168.757 316.626 168.792ZM316.469 155.064C315.666 155.064 314.951 155.188 314.323 155.436C313.73 155.649 313.241 155.95 312.857 156.341C312.508 156.695 312.229 157.103 312.02 157.565C311.845 157.99 311.758 158.398 311.758 158.788H321.075C321.075 158.398 320.988 157.99 320.813 157.565C320.674 157.103 320.412 156.695 320.028 156.341C319.644 155.95 319.156 155.649 318.563 155.436C318.004 155.188 317.306 155.064 316.469 155.064Z" fill="#6366F1"/>
<path d="M346.357 167.832C347.369 167.832 348.172 167.707 348.764 167.459C349.358 167.175 349.829 166.891 350.178 166.608L352.69 174.004C352.062 174.536 351.365 174.98 350.596 175.334C349.863 175.654 349.114 175.92 348.346 176.132C347.578 176.345 346.828 176.487 346.095 176.558C345.398 176.665 344.786 176.718 344.263 176.718C340.774 176.718 338.157 175.778 336.412 173.898C334.668 172.017 333.795 169.499 333.795 166.342V156.71H329.922V148.303H333.795V141.279H343.059V148.303H351.329V156.71H343.059V164.16C343.059 165.331 343.339 166.235 343.897 166.874C344.456 167.512 345.275 167.832 346.357 167.832Z" fill="#6366F1"/>
<path d="M369.568 172.674C368.87 173.738 368.103 174.554 367.265 175.121C366.462 175.653 365.643 176.044 364.805 176.292C364.002 176.54 363.252 176.682 362.555 176.718C361.856 176.753 361.333 176.771 360.984 176.771C359.833 176.771 358.698 176.594 357.582 176.239C356.5 175.884 355.541 175.334 354.703 174.589C353.866 173.844 353.185 172.922 352.662 171.822C352.139 170.687 351.877 169.321 351.877 167.725C351.877 166.093 352.278 164.674 353.081 163.468C353.918 162.262 354.913 161.357 356.064 160.754C356.902 160.329 357.792 160.009 358.734 159.797C359.71 159.548 360.687 159.389 361.665 159.318C362.676 159.247 363.723 159.211 364.805 159.211H369.307C369.271 158.218 368.904 157.384 368.208 156.71C367.544 156.001 366.601 155.646 365.381 155.646C364.473 155.646 363.636 155.841 362.869 156.231C362.136 156.622 361.717 157.118 361.612 157.721H352.4C352.61 155.983 353.115 154.493 353.918 153.252C354.72 151.974 355.714 150.946 356.902 150.165C358.088 149.349 359.396 148.746 360.827 148.356C362.257 147.966 363.741 147.771 365.276 147.771C367.125 147.771 368.731 147.966 370.092 148.356C371.487 148.746 372.691 149.332 373.703 150.112C376.635 152.276 378.1 156.001 378.1 161.286V176.345H369.568V172.674ZM364.23 165.011C363.356 165.011 362.607 165.189 361.979 165.543C361.351 165.898 361.037 166.483 361.037 167.299C361.037 168.044 361.315 168.612 361.874 169.002C362.466 169.392 363.183 169.587 364.02 169.587C364.753 169.587 365.433 169.463 366.062 169.215C366.724 168.967 367.282 168.63 367.736 168.204C368.224 167.743 368.608 167.246 368.888 166.714C369.202 166.182 369.376 165.614 369.411 165.011H364.23Z" fill="#6366F1"/>
<path d="M389.99 176.345H380.883V138.672H390.147V151.07C391.299 149.899 392.591 149.048 394.021 148.516C395.486 147.984 397.04 147.718 398.679 147.718C400.668 147.718 402.379 148.09 403.808 148.835C405.274 149.545 406.496 150.538 407.472 151.815C408.45 153.092 409.165 154.6 409.618 156.338C410.107 158.076 410.351 159.974 410.351 162.031C410.351 164.195 410.107 166.182 409.618 167.991C409.165 169.8 408.45 171.361 407.472 172.674C406.496 173.951 405.24 174.962 403.704 175.707C402.204 176.416 400.424 176.771 398.365 176.771C397.841 176.771 397.249 176.753 396.585 176.718C395.923 176.682 395.224 176.558 394.492 176.345C393.759 176.132 393.01 175.813 392.241 175.387C391.474 174.926 390.723 174.27 389.99 173.419V176.345ZM395.8 156.231C394.894 156.231 394.073 156.391 393.34 156.71C392.607 157.03 391.997 157.473 391.508 158.041C391.055 158.573 390.707 159.193 390.461 159.903C390.252 160.612 390.147 161.357 390.147 162.138C390.147 162.989 390.252 163.787 390.461 164.532C390.671 165.277 391.021 165.934 391.508 166.501C391.997 167.033 392.607 167.477 393.34 167.831C394.073 168.186 394.946 168.364 395.957 168.364C397.004 168.364 397.859 168.169 398.522 167.778C399.22 167.353 399.762 166.838 400.145 166.235C400.563 165.597 400.843 164.923 400.982 164.213C401.157 163.468 401.244 162.723 401.244 161.978C401.209 161.304 401.087 160.63 400.877 159.956C400.704 159.247 400.406 158.626 399.988 158.094C399.569 157.526 399.011 157.083 398.313 156.763C397.65 156.409 396.813 156.231 395.8 156.231Z" fill="#6366F1"/>
<path d="M420.856 150.963C421.38 150.183 421.955 149.58 422.584 149.154C423.212 148.729 423.84 148.409 424.468 148.196C425.096 147.984 425.724 147.859 426.352 147.824C427.016 147.753 427.661 147.718 428.289 147.718C428.743 147.718 429.197 147.735 429.65 147.771C430.104 147.771 430.4 147.788 430.539 147.824V156.923H428.76C427.783 156.923 426.841 157.012 425.933 157.189C425.062 157.367 424.276 157.703 423.578 158.2C422.916 158.661 422.374 159.318 421.955 160.169C421.573 161.02 421.38 162.156 421.38 163.575V176.345H412.115V148.303H420.228L420.856 150.963Z" fill="#6366F1"/>
<path d="M448.035 172.674C447.337 173.738 446.57 174.554 445.732 175.121C444.929 175.653 444.11 176.044 443.272 176.292C442.469 176.54 441.72 176.682 441.021 176.718C440.323 176.753 439.8 176.771 439.451 176.771C438.3 176.771 437.166 176.594 436.049 176.239C434.968 175.884 434.008 175.334 433.17 174.589C432.333 173.844 431.652 172.922 431.129 171.822C430.605 170.687 430.344 169.321 430.344 167.725C430.344 166.093 430.745 164.674 431.548 163.468C432.385 162.262 433.38 161.357 434.531 160.754C435.369 160.329 436.258 160.009 437.2 159.797C438.177 159.548 439.155 159.389 440.132 159.318C441.144 159.247 442.191 159.211 443.272 159.211H447.773C447.739 158.218 447.373 157.384 446.674 156.71C446.012 156.001 445.07 155.646 443.848 155.646C442.94 155.646 442.103 155.841 441.335 156.231C440.603 156.622 440.184 157.118 440.079 157.721H430.867C431.077 155.983 431.582 154.493 432.385 153.252C433.188 151.974 434.183 150.946 435.369 150.165C436.554 149.349 437.863 148.746 439.294 148.356C440.725 147.966 442.207 147.771 443.743 147.771C445.593 147.771 447.198 147.966 448.559 148.356C449.954 148.746 451.158 149.332 452.17 150.112C455.101 152.276 456.567 156.001 456.567 161.286V176.345H448.035V172.674ZM442.696 165.011C441.824 165.011 441.074 165.189 440.446 165.543C439.818 165.898 439.504 166.483 439.504 167.299C439.504 168.044 439.783 168.612 440.341 169.002C440.935 169.392 441.65 169.587 442.487 169.587C443.22 169.587 443.9 169.463 444.528 169.215C445.191 168.967 445.75 168.63 446.203 168.204C446.692 167.743 447.075 167.246 447.355 166.714C447.669 166.182 447.844 165.614 447.878 165.011H442.696Z" fill="#6366F1"/>
<path d="M464.532 135C465.299 135 466.014 135.124 466.678 135.372C467.341 135.621 467.916 135.993 468.405 136.49C468.929 136.987 469.348 137.572 469.662 138.246C469.976 138.92 470.133 139.7 470.133 140.587C470.133 142.432 469.574 143.833 468.458 144.791C467.341 145.713 466.032 146.174 464.532 146.174C463.799 146.174 463.101 146.068 462.439 145.855C461.775 145.607 461.182 145.252 460.659 144.791C460.136 144.33 459.717 143.762 459.403 143.088C459.089 142.379 458.932 141.545 458.932 140.587C458.932 139.7 459.089 138.92 459.403 138.246C459.751 137.572 460.188 136.987 460.711 136.49C461.235 135.993 461.827 135.621 462.491 135.372C463.153 135.124 463.834 135 464.532 135ZM469.191 176.345H459.978V148.303H469.191V176.345Z" fill="#6366F1"/>
<path d="M481.594 150.857C482.222 150.183 482.903 149.633 483.635 149.207C484.368 148.782 485.085 148.462 485.781 148.25C486.514 148.037 487.213 147.895 487.875 147.824C488.539 147.753 489.097 147.718 489.55 147.718C491.225 147.718 492.691 148.001 493.947 148.569C495.203 149.101 496.286 149.881 497.192 150.91C498.204 152.116 498.903 153.589 499.286 155.327C499.704 157.03 499.914 158.874 499.914 160.861V176.345H490.649V161.659C490.649 161.091 490.58 160.506 490.44 159.903C490.335 159.264 490.126 158.679 489.812 158.147C489.498 157.615 489.062 157.189 488.503 156.87C487.945 156.515 487.231 156.338 486.357 156.338C485.59 156.338 484.875 156.533 484.211 156.923C483.549 157.278 483.043 157.739 482.693 158.307C482.379 158.839 482.153 159.424 482.013 160.063C481.874 160.701 481.804 161.304 481.804 161.872V176.345H472.539V148.25H481.071L481.594 150.857Z" fill="#6366F1"/>
</g>
</g>
<defs>
<linearGradient id="paint0_linear_289_195" x1="350" y1="0" x2="350" y2="320" gradientUnits="userSpaceOnUse">
<stop stop-color="white"/>
<stop offset="1" stop-color="#F6F6F6"/>
</linearGradient>
<clipPath id="clip0_289_195">
<rect width="700" height="320" rx="50" fill="white"/>
</clipPath>
<clipPath id="clip1_289_195">
<rect width="300" height="50.9709" fill="white" transform="translate(200 135)"/>
</clipPath>
</defs>
</svg>
