<svg width="700" height="320" viewBox="0 0 700 320" fill="none" xmlns="http://www.w3.org/2000/svg">
<g clip-path="url(#clip0_289_182)">
<rect width="700" height="320" rx="50" fill="url(#paint0_linear_289_182)"/>
<path opacity="0.05" fill-rule="evenodd" clip-rule="evenodd" d="M-11.1772 371.357L127.279 362.672L97.352 280.733L-38.6001 330.889C-52.4101 307.565 -63.9251 282.719 -72.8341 256.665L69.3976 204.192L38.6308 119.952L-76.8996 244.096C-86.7256 211.907 -92.6132 177.994 -94 142.923L7.27469 34.0985L-35.3714 -82.6668C-18.6141 -109.986 1.32316 -135.139 23.924 -157.61L69.5148 -32.782L160.904 -130.984L77.146 -202.101C100.902 -218.701 126.542 -232.788 153.677 -243.974L216.453 -190.674L293.829 -273.819C297.861 -273.939 301.909 -274 305.97 -274C336.861 -274 366.935 -270.496 395.817 -263.864L278.599 -137.906L485.304 37.6028L558.76 -183.984C582.501 -164.6 603.98 -142.543 622.739 -118.271L578.048 16.5392L678.373 -20.4737C688.282 4.62295 695.732 30.9619 700.427 58.2436L567.409 107.316L696.162 216.639C689.573 245.442 679.885 273.063 667.466 299.129L524.587 177.813L470.441 341.146L651.178 329.809C632.55 361.494 609.693 390.39 583.387 415.718L442.798 424.538L413.487 512.955C384.514 521.026 354.218 525.913 322.997 527.222L355.214 430.031L241.16 437.185L273.704 526.294C228.273 522.667 184.979 511.444 145.091 493.894C156.449 498.867 168.128 503.352 180.106 507.314L156.434 442.5L66.7025 448.128C37.3824 426.207 11.1632 400.357 -11.1772 371.357ZM212.005 357.358L173.729 252.555L447.534 151.542L382.86 346.64L212.005 357.358ZM145.773 176.016L408.372 79.1355L223.05 -78.2161L100.871 53.0719L145.773 176.016Z" fill="white"/>
<g clip-path="url(#clip1_289_182)">
<path fill-rule="evenodd" clip-rule="evenodd" d="M205.186 175.699L213.855 175.151L211.981 169.984L203.469 173.147C202.604 171.676 201.883 170.109 201.325 168.466L210.231 165.157L208.304 159.844L201.071 167.673C200.455 165.643 200.087 163.504 200 161.293L206.341 154.43L203.671 147.066C204.72 145.343 205.968 143.757 207.384 142.34L210.238 150.212L215.96 144.019L210.716 139.534C212.203 138.487 213.809 137.599 215.508 136.894L219.438 140.255L224.283 135.011C224.536 135.004 224.789 135 225.043 135C226.978 135 228.861 135.221 230.669 135.639L223.33 143.583L236.272 154.651L240.871 140.677C242.358 141.899 243.703 143.29 244.877 144.821L242.079 153.323L248.361 150.988C248.981 152.571 249.448 154.232 249.742 155.953L241.413 159.047L249.475 165.942C249.062 167.758 248.455 169.5 247.678 171.144L238.732 163.493L235.341 173.794L246.658 173.079C245.492 175.077 244.06 176.899 242.413 178.496L233.611 179.053L231.775 184.628C229.961 185.137 228.064 185.446 226.11 185.528L228.127 179.399L220.985 179.85L223.023 185.47C220.179 185.241 217.468 184.533 214.97 183.426C215.681 183.74 216.413 184.023 217.163 184.273L215.68 180.185L210.062 180.54C208.226 179.158 206.585 177.528 205.186 175.699ZM219.16 174.816L216.763 168.207L233.907 161.836L229.858 174.14L219.16 174.816ZM215.013 163.38L231.455 157.27L219.852 147.347L212.202 155.626L215.013 163.38Z" fill="white"/>
<path d="M268.837 151.049C269.43 150.24 270.075 149.606 270.773 149.149C271.471 148.691 272.152 148.34 272.815 148.093C273.513 147.847 274.158 147.706 274.751 147.671C275.379 147.601 275.955 147.565 276.479 147.565C277.735 147.565 278.991 147.829 280.247 148.357C281.538 148.85 282.62 149.835 283.492 151.313C284.086 150.539 284.714 149.906 285.377 149.413C286.04 148.92 286.738 148.533 287.47 148.252C288.203 147.97 288.918 147.794 289.616 147.724C290.349 147.618 291.064 147.565 291.762 147.565C293.333 147.565 294.693 147.829 295.845 148.357C297.031 148.885 297.991 149.642 298.724 150.627C299.457 151.577 299.997 152.738 300.346 154.111C300.695 155.448 300.87 156.961 300.87 158.65V175.911H291.605V160.392C291.605 159.97 291.57 159.512 291.501 159.02C291.466 158.527 291.344 158.07 291.134 157.647C290.96 157.19 290.663 156.82 290.244 156.539C289.826 156.222 289.25 156.064 288.517 156.064C287.715 156.134 287.069 156.345 286.581 156.697C286.127 157.049 285.778 157.471 285.534 157.964C285.324 158.457 285.185 158.967 285.115 159.495C285.08 160.023 285.063 160.498 285.063 160.92V175.911H275.798V160.339C275.798 159.987 275.763 159.565 275.693 159.072C275.659 158.58 275.536 158.105 275.327 157.647C275.118 157.19 274.804 156.82 274.385 156.539C274.001 156.222 273.46 156.064 272.762 156.064C271.89 156.064 271.192 156.24 270.669 156.592C270.18 156.943 269.814 157.401 269.57 157.964C269.36 158.492 269.221 159.055 269.151 159.653C269.116 160.216 269.098 160.726 269.098 161.184V175.911H259.834V148.093H267.999L268.837 151.049Z" fill="white"/>
<path d="M316.626 168.521C317.708 168.556 318.615 168.362 319.348 167.94C320.081 167.483 320.534 167.008 320.709 166.515H329.764C329.38 168.275 328.769 169.77 327.932 171.002C327.094 172.198 326.082 173.201 324.896 174.01C323.71 174.82 322.401 175.418 320.97 175.805C319.54 176.157 318.057 176.333 316.521 176.333C314.393 176.333 312.456 176.016 310.711 175.383C309.002 174.714 307.536 173.764 306.315 172.532C305.093 171.266 304.134 169.753 303.436 167.993C302.773 166.198 302.441 164.157 302.441 161.87C302.441 159.688 302.808 157.7 303.541 155.905C304.273 154.076 305.303 152.51 306.629 151.208C307.85 150.046 309.263 149.149 310.868 148.516C312.508 147.847 314.375 147.513 316.469 147.513C318.632 147.513 320.464 147.812 321.965 148.41C323.5 149.008 324.896 149.923 326.152 151.155C327.339 152.386 328.228 153.864 328.822 155.589C329.45 157.313 329.764 159.16 329.764 161.131C329.764 161.8 329.729 162.416 329.659 162.978C329.624 163.506 329.537 164.069 329.397 164.668H311.601C311.706 165.688 312.142 166.585 312.91 167.36C313.712 168.099 314.951 168.486 316.626 168.521ZM316.469 154.902C315.666 154.902 314.951 155.026 314.323 155.272C313.73 155.483 313.241 155.782 312.857 156.169C312.508 156.521 312.229 156.926 312.02 157.383C311.845 157.806 311.758 158.21 311.758 158.597H321.075C321.075 158.21 320.988 157.806 320.813 157.383C320.674 156.926 320.412 156.521 320.028 156.169C319.644 155.782 319.156 155.483 318.563 155.272C318.004 155.026 317.306 154.902 316.469 154.902Z" fill="white"/>
<path d="M346.357 167.568C347.369 167.568 348.172 167.445 348.764 167.198C349.358 166.917 349.829 166.635 350.178 166.354L352.69 173.691C352.062 174.219 351.365 174.659 350.596 175.01C349.863 175.327 349.114 175.591 348.346 175.802C347.578 176.013 346.828 176.154 346.095 176.225C345.398 176.33 344.786 176.383 344.263 176.383C340.774 176.383 338.157 175.45 336.412 173.585C334.668 171.72 333.795 169.222 333.795 166.09V156.536H329.922V148.196H333.795V141.229H343.059V148.196H351.329V156.536H343.059V163.926C343.059 165.087 343.339 165.984 343.897 166.618C344.456 167.251 345.275 167.568 346.357 167.568Z" fill="white"/>
<path d="M369.568 172.371C368.87 173.427 368.103 174.236 367.265 174.799C366.462 175.327 365.643 175.714 364.805 175.961C364.002 176.207 363.252 176.348 362.555 176.383C361.856 176.418 361.333 176.436 360.984 176.436C359.833 176.436 358.698 176.26 357.582 175.908C356.5 175.556 355.541 175.01 354.703 174.271C353.866 173.533 353.185 172.618 352.662 171.527C352.139 170.401 351.877 169.046 351.877 167.462C351.877 165.844 352.278 164.436 353.081 163.24C353.918 162.043 354.913 161.146 356.064 160.548C356.902 160.125 357.792 159.809 358.734 159.597C359.71 159.351 360.687 159.193 361.665 159.122C362.676 159.052 363.723 159.017 364.805 159.017H369.307C369.271 158.032 368.904 157.205 368.208 156.536C367.544 155.832 366.601 155.48 365.381 155.48C364.473 155.48 363.636 155.674 362.869 156.061C362.136 156.448 361.717 156.941 361.612 157.539H352.4C352.61 155.815 353.115 154.337 353.918 153.105C354.72 151.838 355.714 150.818 356.902 150.044C358.088 149.234 359.396 148.636 360.827 148.249C362.257 147.862 363.741 147.668 365.276 147.668C367.125 147.668 368.731 147.862 370.092 148.249C371.487 148.636 372.691 149.217 373.703 149.991C376.635 152.137 378.1 155.832 378.1 161.075V176.013H369.568V172.371ZM364.23 164.77C363.356 164.77 362.607 164.946 361.979 165.298C361.351 165.65 361.037 166.231 361.037 167.04C361.037 167.779 361.315 168.342 361.874 168.729C362.466 169.116 363.183 169.31 364.02 169.31C364.753 169.31 365.433 169.187 366.062 168.94C366.724 168.694 367.282 168.36 367.736 167.937C368.224 167.48 368.608 166.987 368.888 166.459C369.202 165.932 369.376 165.369 369.411 164.77H364.23Z" fill="white"/>
<path d="M389.99 176.013H380.883V138.642H390.147V150.941C391.299 149.78 392.591 148.935 394.021 148.407C395.486 147.879 397.04 147.615 398.679 147.615C400.668 147.615 402.379 147.985 403.808 148.724C405.274 149.428 406.496 150.413 407.472 151.68C408.45 152.947 409.165 154.442 409.618 156.166C410.107 157.891 410.351 159.773 410.351 161.814C410.351 163.961 410.107 165.932 409.618 167.726C409.165 169.521 408.45 171.069 407.472 172.371C406.496 173.638 405.24 174.641 403.704 175.38C402.204 176.084 400.424 176.436 398.365 176.436C397.841 176.436 397.249 176.418 396.585 176.383C395.923 176.348 395.224 176.225 394.492 176.013C393.759 175.802 393.01 175.486 392.241 175.063C391.474 174.606 390.723 173.955 389.99 173.11V176.013ZM395.8 156.061C394.894 156.061 394.073 156.219 393.34 156.536C392.607 156.853 391.997 157.293 391.508 157.856C391.055 158.383 390.707 158.999 390.461 159.703C390.252 160.407 390.147 161.146 390.147 161.92C390.147 162.765 390.252 163.556 390.461 164.295C390.671 165.034 391.021 165.685 391.508 166.248C391.997 166.776 392.607 167.216 393.34 167.568C394.073 167.92 394.946 168.096 395.957 168.096C397.004 168.096 397.859 167.902 398.522 167.515C399.22 167.093 399.762 166.583 400.145 165.984C400.563 165.351 400.843 164.682 400.982 163.979C401.157 163.24 401.244 162.501 401.244 161.762C401.209 161.093 401.087 160.424 400.877 159.756C400.704 159.052 400.406 158.436 399.988 157.908C399.569 157.345 399.011 156.905 398.313 156.589C397.65 156.237 396.813 156.061 395.8 156.061Z" fill="white"/>
<path d="M420.856 150.835C421.38 150.061 421.955 149.463 422.584 149.041C423.212 148.618 423.84 148.302 424.468 148.091C425.096 147.879 425.724 147.756 426.352 147.721C427.016 147.651 427.661 147.615 428.289 147.615C428.743 147.615 429.197 147.633 429.65 147.668C430.104 147.668 430.4 147.686 430.539 147.721V156.747H428.76C427.783 156.747 426.841 156.835 425.933 157.011C425.062 157.187 424.276 157.521 423.578 158.014C422.916 158.471 422.374 159.122 421.955 159.967C421.573 160.812 421.38 161.938 421.38 163.345V176.013H412.115V148.196H420.228L420.856 150.835Z" fill="white"/>
<path d="M448.035 172.371C447.337 173.427 446.57 174.236 445.732 174.799C444.929 175.327 444.11 175.714 443.272 175.961C442.469 176.207 441.72 176.348 441.021 176.383C440.323 176.418 439.8 176.436 439.451 176.436C438.3 176.436 437.166 176.26 436.049 175.908C434.968 175.556 434.008 175.01 433.17 174.271C432.333 173.533 431.652 172.618 431.129 171.527C430.605 170.401 430.344 169.046 430.344 167.462C430.344 165.844 430.745 164.436 431.548 163.24C432.385 162.043 433.38 161.146 434.531 160.548C435.369 160.125 436.258 159.809 437.2 159.597C438.177 159.351 439.155 159.193 440.132 159.122C441.144 159.052 442.191 159.017 443.272 159.017H447.773C447.739 158.032 447.373 157.205 446.674 156.536C446.012 155.832 445.07 155.48 443.848 155.48C442.94 155.48 442.103 155.674 441.335 156.061C440.603 156.448 440.184 156.941 440.079 157.539H430.867C431.077 155.815 431.582 154.337 432.385 153.105C433.188 151.838 434.183 150.818 435.369 150.044C436.554 149.234 437.863 148.636 439.294 148.249C440.725 147.862 442.207 147.668 443.743 147.668C445.593 147.668 447.198 147.862 448.559 148.249C449.954 148.636 451.158 149.217 452.17 149.991C455.101 152.137 456.567 155.832 456.567 161.075V176.013H448.035V172.371ZM442.696 164.77C441.824 164.77 441.074 164.946 440.446 165.298C439.818 165.65 439.504 166.231 439.504 167.04C439.504 167.779 439.783 168.342 440.341 168.729C440.935 169.116 441.65 169.31 442.487 169.31C443.22 169.31 443.9 169.187 444.528 168.94C445.191 168.694 445.75 168.36 446.203 167.937C446.692 167.48 447.075 166.987 447.355 166.459C447.669 165.932 447.844 165.369 447.878 164.77H442.696Z" fill="white"/>
<path d="M464.532 135C465.299 135 466.014 135.123 466.678 135.369C467.341 135.616 467.916 135.985 468.405 136.478C468.929 136.971 469.348 137.551 469.662 138.22C469.976 138.888 470.133 139.663 470.133 140.542C470.133 142.372 469.574 143.762 468.458 144.712C467.341 145.627 466.032 146.085 464.532 146.085C463.799 146.085 463.101 145.979 462.439 145.768C461.775 145.522 461.182 145.17 460.659 144.712C460.136 144.255 459.717 143.692 459.403 143.023C459.089 142.319 458.932 141.492 458.932 140.542C458.932 139.663 459.089 138.888 459.403 138.22C459.751 137.551 460.188 136.971 460.711 136.478C461.235 135.985 461.827 135.616 462.491 135.369C463.153 135.123 463.834 135 464.532 135ZM469.191 176.013H459.978V148.196H469.191V176.013Z" fill="white"/>
<path d="M481.594 150.73C482.222 150.061 482.903 149.516 483.635 149.093C484.368 148.671 485.085 148.354 485.781 148.143C486.514 147.932 487.213 147.791 487.875 147.721C488.539 147.651 489.097 147.615 489.55 147.615C491.225 147.615 492.691 147.897 493.947 148.46C495.203 148.988 496.286 149.762 497.192 150.783C498.204 151.979 498.903 153.439 499.286 155.164C499.704 156.853 499.914 158.683 499.914 160.653V176.013H490.649V161.445C490.649 160.882 490.58 160.301 490.44 159.703C490.335 159.07 490.126 158.489 489.812 157.961C489.498 157.433 489.062 157.011 488.503 156.694C487.945 156.343 487.231 156.167 486.357 156.167C485.59 156.167 484.875 156.36 484.211 156.747C483.549 157.099 483.043 157.557 482.693 158.12C482.379 158.647 482.153 159.228 482.013 159.861C481.874 160.495 481.804 161.093 481.804 161.656V176.013H472.539V148.143H481.071L481.594 150.73Z" fill="white"/>
</g>
</g>
<defs>
<linearGradient id="paint0_linear_289_182" x1="350" y1="0" x2="350" y2="320" gradientUnits="userSpaceOnUse">
<stop stop-color="#6366F1"/>
<stop offset="1" stop-color="#595CD5"/>
</linearGradient>
<clipPath id="clip0_289_182">
<rect width="700" height="320" rx="50" fill="white"/>
</clipPath>
<clipPath id="clip1_289_182">
<rect width="300" height="50.5618" fill="white" transform="translate(200 135)"/>
</clipPath>
</defs>
</svg>
